<svg width="288" height="52" viewBox="0 0 288 52" fill="none" xmlns="http://www.w3.org/2000/svg">
<rect width="288" height="52" rx="8" fill="#212121"/>
<path d="M97.5 26L109.5 26" stroke="#FCF5E5" stroke-width="2" stroke-linecap="round"/>
<path d="M103.5 32V20" stroke="#FCF5E5" stroke-width="2" stroke-linecap="round"/>
<path d="M127.836 32H126.012L120.524 23.696V32H118.7V20.864H120.524L126.012 29.152V20.864H127.836V32ZM138.311 27.376C138.311 27.7067 138.29 28.0053 138.247 28.272H131.511C131.565 28.976 131.826 29.5413 132.295 29.968C132.765 30.3947 133.341 30.608 134.023 30.608C135.005 30.608 135.698 30.1973 136.103 29.376H138.071C137.805 30.1867 137.319 30.8533 136.615 31.376C135.922 31.888 135.058 32.144 134.023 32.144C133.181 32.144 132.423 31.9573 131.751 31.584C131.09 31.2 130.567 30.6667 130.183 29.984C129.81 29.2907 129.623 28.4907 129.623 27.584C129.623 26.6773 129.805 25.8827 130.167 25.2C130.541 24.5067 131.058 23.9733 131.719 23.6C132.391 23.2267 133.159 23.04 134.023 23.04C134.855 23.04 135.597 23.2213 136.247 23.584C136.898 23.9467 137.405 24.4587 137.767 25.12C138.13 25.7707 138.311 26.5227 138.311 27.376ZM136.407 26.8C136.397 26.128 136.157 25.5893 135.687 25.184C135.218 24.7787 134.637 24.576 133.943 24.576C133.314 24.576 132.775 24.7787 132.327 25.184C131.879 25.5787 131.613 26.1173 131.527 26.8H136.407ZM151.946 23.184L149.21 32H147.29L145.514 25.488L143.738 32H141.818L139.066 23.184H140.922L142.762 30.272L144.634 23.184H146.538L148.33 30.24L150.154 23.184H151.946ZM165.242 24.192C165.242 24.7573 165.108 25.2907 164.842 25.792C164.575 26.2933 164.148 26.704 163.562 27.024C162.975 27.3333 162.223 27.488 161.306 27.488H159.29V32H157.466V20.88H161.306C162.159 20.88 162.879 21.0293 163.466 21.328C164.063 21.616 164.506 22.0107 164.794 22.512C165.092 23.0133 165.242 23.5733 165.242 24.192ZM161.306 26C161.999 26 162.516 25.8453 162.858 25.536C163.199 25.216 163.37 24.768 163.37 24.192C163.37 22.976 162.682 22.368 161.306 22.368H159.29V26H161.306ZM170.805 32.144C169.973 32.144 169.221 31.9573 168.549 31.584C167.877 31.2 167.349 30.6667 166.965 29.984C166.581 29.2907 166.389 28.4907 166.389 27.584C166.389 26.688 166.587 25.8933 166.981 25.2C167.376 24.5067 167.915 23.9733 168.597 23.6C169.28 23.2267 170.043 23.04 170.885 23.04C171.728 23.04 172.491 23.2267 173.173 23.6C173.856 23.9733 174.395 24.5067 174.789 25.2C175.184 25.8933 175.381 26.688 175.381 27.584C175.381 28.48 175.179 29.2747 174.773 29.968C174.368 30.6613 173.813 31.2 173.109 31.584C172.416 31.9573 171.648 32.144 170.805 32.144ZM170.805 30.56C171.275 30.56 171.712 30.448 172.117 30.224C172.533 30 172.869 29.664 173.125 29.216C173.381 28.768 173.509 28.224 173.509 27.584C173.509 26.944 173.387 26.4053 173.141 25.968C172.896 25.52 172.571 25.184 172.165 24.96C171.76 24.736 171.323 24.624 170.853 24.624C170.384 24.624 169.947 24.736 169.541 24.96C169.147 25.184 168.832 25.52 168.597 25.968C168.363 26.4053 168.245 26.944 168.245 27.584C168.245 28.5333 168.485 29.2693 168.965 29.792C169.456 30.304 170.069 30.56 170.805 30.56ZM180.384 32.144C179.691 32.144 179.067 32.0213 178.512 31.776C177.968 31.52 177.536 31.1787 177.216 30.752C176.896 30.3147 176.726 29.8293 176.704 29.296H178.592C178.624 29.6693 178.8 29.984 179.12 30.24C179.451 30.4853 179.862 30.608 180.352 30.608C180.864 30.608 181.259 30.512 181.536 30.32C181.824 30.1173 181.968 29.8613 181.968 29.552C181.968 29.2213 181.808 28.976 181.488 28.816C181.179 28.656 180.683 28.48 180 28.288C179.339 28.1067 178.8 27.9307 178.384 27.76C177.968 27.5893 177.606 27.328 177.296 26.976C176.998 26.624 176.848 26.16 176.848 25.584C176.848 25.1147 176.987 24.688 177.264 24.304C177.542 23.9093 177.936 23.6 178.448 23.376C178.971 23.152 179.568 23.04 180.24 23.04C181.243 23.04 182.048 23.296 182.656 23.808C183.275 24.3093 183.606 24.9973 183.648 25.872H181.824C181.792 25.4773 181.632 25.1627 181.344 24.928C181.056 24.6933 180.667 24.576 180.176 24.576C179.696 24.576 179.328 24.6667 179.072 24.848C178.816 25.0293 178.688 25.2693 178.688 25.568C178.688 25.8027 178.774 26 178.944 26.16C179.115 26.32 179.323 26.448 179.568 26.544C179.814 26.6293 180.176 26.7413 180.656 26.88C181.296 27.0507 181.819 27.2267 182.224 27.408C182.64 27.5787 182.998 27.8347 183.296 28.176C183.595 28.5173 183.75 28.9707 183.76 29.536C183.76 30.0373 183.622 30.4853 183.344 30.88C183.067 31.2747 182.672 31.584 182.16 31.808C181.659 32.032 181.067 32.144 180.384 32.144ZM187.859 24.672V29.552C187.859 29.8827 187.934 30.1227 188.083 30.272C188.243 30.4107 188.51 30.48 188.883 30.48H190.003V32H188.563C187.742 32 187.113 31.808 186.675 31.424C186.238 31.04 186.019 30.416 186.019 29.552V24.672H184.979V23.184H186.019V20.992H187.859V23.184H190.003V24.672H187.859Z" fill="#FCF5E5"/>
</svg>
